HIERARCHY
ROOT joint_Root
{
	OFFSET 0.0 0.0 0.0
	CHANNELS 6 Xposition Yposition Zposition Zrotation Xrotation Yrotation 
	JOINT Hips
	{
		OFFSET 4.5925 91.4895 -427.239
		CHANNELS 6 Xposition Yposition Zposition Zrotation Xrotation Yrotation 
		JOINT Spine
		{
			OFFSET 15.7357 0.0 0.0
			CHANNELS 6 Xposition Yposition Zposition Zrotation Xrotation Yrotation 
			JOINT Chest
			{
				OFFSET 8.98455 -0.406207 0.0
				CHANNELS 6 Xposition Yposition Zposition Zrotation Xrotation Yrotation 
				JOINT Neck
				{
					OFFSET 16.3773 0.0 0.0
					CHANNELS 6 Xposition Yposition Zposition Zrotation Xrotation Yrotation 
					JOINT Head
					{
						OFFSET 6.45672 0.0 0.0
						CHANNELS 6 Xposition Yposition Zposition Zrotation Xrotation Yrotation 
						End Site
						{
							OFFSET 0.0 0.0 0.0
						}
					}
				}
				JOINT Shoulder_L
				{
					OFFSET 12.9942 -0.242716 4.98039
					CHANNELS 6 Xposition Yposition Zposition Zrotation Xrotation Yrotation 
					JOINT UpperArm_L
					{
						OFFSET 5.34809 0.0 0.0
						CHANNELS 6 Xposition Yposition Zposition Zrotation Xrotation Yrotation 
						JOINT LowerArm_L
						{
							OFFSET 24.3286 1.87007e-05 0.0
							CHANNELS 6 Xposition Yposition Zposition Zrotation Xrotation Yrotation 
							JOINT Hand_L
							{
								OFFSET 22.2916 0.0 0.0
								CHANNELS 6 Xposition Yposition Zposition Zrotation Xrotation Yrotation 
								End Site
								{
									OFFSET 0.0 0.0 0.0
								}
							}
						}
					}
				}
				JOINT Shoulder_R
				{
					OFFSET 12.9945 -0.242716 -4.98039
					CHANNELS 6 Xposition Yposition Zposition Zrotation Xrotation Yrotation 
					JOINT UpperArm_R
					{
						OFFSET -5.34813 0.0 0.0
						CHANNELS 6 Xposition Yposition Zposition Zrotation Xrotation Yrotation 
						JOINT LowerArm_R
						{
							OFFSET -24.3289 0.000322201 0.0
							CHANNELS 6 Xposition Yposition Zposition Zrotation Xrotation Yrotation 
							JOINT Hand_R
							{
								OFFSET -22.2915 -0.000108084 0.0
								CHANNELS 6 Xposition Yposition Zposition Zrotation Xrotation Yrotation 
								End Site
								{
									OFFSET 0.0 0.0 0.0
								}
							}
						}
					}
				}
			}
		}
		JOINT UpperLeg_L
		{
			OFFSET -2.19248 -6.46944 0.0
			CHANNELS 6 Xposition Yposition Zposition Zrotation Xrotation Yrotation 
			JOINT LowerLeg_L
			{
				OFFSET 39.0811 0.0 -1.23785e-05
				CHANNELS 6 Xposition Yposition Zposition Zrotation Xrotation Yrotation 
				JOINT Foot_L
				{
					OFFSET 40.9854 0.0 -1.26872e-05
					CHANNELS 6 Xposition Yposition Zposition Zrotation Xrotation Yrotation 
					JOINT Toes_L
					{
						OFFSET 11.7543 0.0 0.0
						CHANNELS 6 Xposition Yposition Zposition Zrotation Xrotation Yrotation 
						End Site
						{
							OFFSET 0.0 0.0 0.0
						}
					}
				}
			}
		}
		JOINT UpperLeg_R
		{
			OFFSET -2.19251 6.46944 0.0
			CHANNELS 6 Xposition Yposition Zposition Zrotation Xrotation Yrotation 
			JOINT LowerLeg_R
			{
				OFFSET -39.0811 -0.00228153 -0.0401928
				CHANNELS 6 Xposition Yposition Zposition Zrotation Xrotation Yrotation 
				JOINT Foot_R
				{
					OFFSET -40.9854 0.0 0.0
					CHANNELS 6 Xposition Yposition Zposition Zrotation Xrotation Yrotation 
					JOINT Toes_R
					{
						OFFSET -11.7543 0.0 0.0
						CHANNELS 6 Xposition Yposition Zposition Zrotation Xrotation Yrotation 
						End Site
						{
							OFFSET 0.0 0.0 0.0
						}
					}
				}
			}
		}
	}
}
MOTION
Frames:	8
Frame Time:	0.0333333
0.000000 0.000000 0.000000 0.000000 0.000000 -0.000000 5.079500 90.518700 -0.541683 89.464700 -7.143050 13.547400 15.735700 0.000005 -0.000001 91.819200 83.034100 -92.902500 8.984550 -0.406207 -0.000000 6.164200 0.456171 -2.188640 16.377300 -0.000001 -0.000001 33.304700 -3.738150 1.423940 6.456720 -0.000001 -0.000000 16.178000 -5.888350 -1.329670 12.994200 -0.242716 4.980390 -87.020500 -6.407740 -64.996600 5.348090 -0.000007 -0.000001 -38.765200 -52.242100 -50.118800 24.328600 0.000019 0.000005 11.665600 19.057200 -32.306500 22.291600 -0.000001 0.000005 15.640600 4.995990 7.404520 12.994500 -0.242716 -4.980390 91.242900 -4.270300 -73.755100 -5.348130 -0.000001 -0.000004 -38.600500 -52.549100 -49.196100 -24.328900 0.000322 -0.000009 2.570220 3.789630 -34.194700 -22.291500 -0.000108 -0.000004 22.353400 5.283460 0.531329 -2.192480 -6.469440 -0.000000 -177.651000 -16.147500 3.134120 39.081100 -0.000007 -0.000012 -0.045590 0.073906 31.669100 40.985400 -0.000006 -0.000013 3.888280 1.906700 -71.658700 11.754300 -0.000000 0.000003 -0.000108 -0.001098 -16.619600 -2.192510 6.469440 -0.000001 170.204000 16.119700 -177.185000 -39.081100 -0.002282 -0.040193 -0.215326 0.367197 30.769500 -40.985400 0.000008 0.000006 -0.258251 15.021000 -68.795200 -11.754300 -0.000006 -0.000006 -0.003326 -0.044238 -18.372300
0.000000 0.000000 0.000000 0.000000 0.000000 -0.000000 5.157510 90.499200 -0.469634 89.492200 -7.086600 13.617800 15.735700 0.000005 -0.000001 91.691700 83.053500 -92.781600 8.984550 -0.406207 -0.000000 6.126110 0.424582 -2.200110 16.377300 -0.000001 -0.000001 33.400400 -3.782030 1.503280 6.456720 -0.000001 -0.000000 16.311200 -5.888380 -1.374400 12.994200 -0.242716 4.980390 -87.020400 -6.428890 -65.068100 5.348090 -0.000007 -0.000001 -39.600100 -52.046700 -51.701000 24.328600 0.000019 0.000005 11.690600 18.597900 -32.975500 22.291600 -0.000001 0.000005 15.864700 4.996950 7.384310 12.994500 -0.242716 -4.980390 91.266800 -4.322540 -73.648300 -5.348130 -0.000001 -0.000004 -39.173300 -52.461400 -50.471000 -24.328900 0.000322 -0.000009 2.510450 3.635420 -34.674000 -22.291500 -0.000108 -0.000004 22.471300 5.283970 0.517388 -2.192480 -6.469440 -0.000000 -177.735000 -16.070700 3.224780 39.081100 -0.000007 -0.000012 -0.045649 0.073915 31.699300 40.985400 -0.000006 -0.000013 3.923850 1.840120 -71.725400 11.754300 -0.000000 0.000003 -0.000114 -0.001147 -16.621500 -2.192510 6.469440 -0.000001 170.073000 16.079600 -177.078000 -39.081100 -0.002282 -0.040193 -0.221491 0.376914 30.812100 -40.985400 0.000008 0.000006 -0.338957 14.989900 -68.851800 -11.754300 -0.000006 -0.000006 -0.003488 -0.046001 -18.444100
0.000000 0.000000 0.000000 0.000000 0.000000 -0.000000 5.222130 90.478800 -0.395530 89.511700 -7.103610 13.716500 15.735700 0.000005 -0.000001 91.617400 83.106900 -92.711700 8.984550 -0.406207 -0.000000 6.019560 0.404729 -2.207400 16.377300 -0.000001 -0.000001 33.322900 -3.801090 1.568070 6.456720 -0.000001 -0.000000 16.427400 -5.853910 -1.417030 12.994200 -0.242716 4.980390 -86.988000 -6.512490 -65.112300 5.348090 -0.000007 -0.000001 -40.768700 -51.445500 -54.220600 24.328600 0.000019 0.000005 11.883300 18.059500 -34.168300 22.291600 -0.000001 0.000005 16.258500 5.003890 7.236560 12.994500 -0.242716 -4.980390 91.295900 -4.424200 -73.655500 -5.348130 -0.000001 -0.000004 -39.608100 -51.823800 -52.236300 -24.328900 0.000322 -0.000009 2.395160 3.338880 -35.697500 -22.291500 -0.000108 -0.000004 22.712700 5.293040 0.266466 -2.192480 -6.469440 -0.000000 -177.743000 -16.147900 3.376700 39.081100 -0.000007 -0.000012 -0.045275 0.073226 31.728600 40.985400 -0.000006 -0.000013 3.976070 1.868310 -71.813700 11.754300 -0.000000 0.000003 -0.000110 -0.001117 -16.620300 -2.192510 6.469440 -0.000001 170.006000 15.926600 -176.976000 -39.081100 -0.002282 -0.040193 -0.219489 0.372653 30.873200 -40.985400 0.000008 0.000006 -0.410557 14.901900 -68.915100 -11.754300 -0.000006 -0.000006 -0.003398 -0.045030 -18.404600
0.000000 0.000000 0.000000 0.000000 0.000000 -0.000000 5.281410 90.453400 -0.322811 89.518400 -7.180990 13.868900 15.735700 0.000005 -0.000001 91.611400 83.165800 -92.695600 8.984550 -0.406207 -0.000000 5.901790 0.400976 -2.186600 16.377300 -0.000001 -0.000001 33.058500 -3.795910 1.692010 6.456720 -0.000001 -0.000000 16.488500 -5.852030 -1.574750 12.994200 -0.242716 4.980390 -86.953300 -6.627850 -65.243700 5.348090 -0.000007 -0.000001 -41.760500 -50.421000 -57.101400 24.328600 0.000019 0.000005 12.119600 17.331800 -35.785200 22.291600 -0.000001 0.000005 16.646300 5.016210 6.972670 12.994500 -0.242716 -4.980390 91.346900 -4.615460 -73.711500 -5.348130 -0.000001 -0.000004 -40.121600 -50.734300 -54.584700 -24.328900 0.000322 -0.000009 2.490580 3.288840 -37.181000 -22.291500 -0.000108 -0.000004 23.000000 5.300920 0.046594 -2.192480 -6.469440 -0.000000 -177.740000 -16.177400 3.559920 39.081100 -0.000007 -0.000012 -0.044299 0.071473 31.790900 40.985400 -0.000006 -0.000013 4.001970 1.809980 -71.909200 11.754300 -0.000000 0.000003 -0.000119 -0.001190 -16.623000 -2.192510 6.469440 -0.000001 169.931000 15.745400 -176.830000 -39.081100 -0.002282 -0.040193 -0.221808 0.375471 30.944500 -40.985400 0.000008 0.000006 -0.462944 14.895800 -68.985400 -11.754300 -0.000006 -0.000006 -0.003281 -0.043745 -18.352200
0.000000 0.000000 0.000000 0.000000 0.000000 -0.000000 5.333970 90.428000 -0.245505 89.525200 -7.317750 14.055600 15.735700 0.000005 -0.000001 91.640200 83.228900 -92.718600 8.984550 -0.406207 -0.000000 5.775550 0.405363 -2.174790 16.377300 -0.000001 -0.000001 32.798300 -3.847140 1.786330 6.456720 -0.000001 -0.000000 16.380700 -5.845910 -1.652080 12.994200 -0.242716 4.980390 -86.887300 -6.817540 -65.387400 5.348090 -0.000007 -0.000001 -42.069200 -48.916500 -59.933300 24.328600 0.000019 0.000005 12.287600 16.397400 -37.652100 22.291600 -0.000001 0.000005 17.061400 5.032440 6.621570 12.994500 -0.242716 -4.980390 91.383000 -4.780640 -73.844300 -5.348130 -0.000001 -0.000004 -40.606700 -49.292500 -57.394700 -24.328900 0.000322 -0.000009 2.450050 3.029980 -39.002100 -22.291500 -0.000108 -0.000004 23.146600 5.311920 -0.264454 -2.192480 -6.469440 -0.000000 -177.715000 -16.219900 3.787240 39.081100 -0.000007 -0.000012 -0.044874 0.072235 31.849900 40.985400 -0.000006 -0.000013 4.007230 1.719060 -72.005700 11.754300 -0.000000 0.000003 -0.000107 -0.001091 -16.619300 -2.192510 6.469440 -0.000001 169.827000 15.633500 -176.647000 -39.081100 -0.002282 -0.040193 -0.225335 0.380239 31.018500 -40.985400 0.000008 0.000006 -0.488276 14.965800 -69.053400 -11.754300 -0.000006 -0.000006 -0.003463 -0.045730 -18.433100
0.000000 0.000000 0.000000 0.000000 0.000000 -0.000000 5.375560 90.406100 -0.178927 89.526000 -7.464740 14.212000 15.735700 0.000005 -0.000001 91.622400 83.306500 -92.685400 8.984550 -0.406207 -0.000000 5.620250 0.397992 -2.143060 16.377300 -0.000001 -0.000001 32.403800 -3.896960 1.859540 6.456720 -0.000001 -0.000000 16.410700 -5.895970 -1.725280 12.994200 -0.242716 4.980390 -86.839500 -6.986680 -65.584400 5.348090 -0.000007 -0.000001 -41.744700 -47.115200 -62.724300 24.328600 0.000019 0.000005 12.699500 15.647200 -39.879400 22.291600 -0.000001 0.000005 17.334000 5.046320 6.318170 12.994500 -0.242716 -4.980390 91.425800 -4.967400 -73.962500 -5.348130 -0.000001 -0.000004 -41.132900 -47.481900 -60.747800 -24.328900 0.000322 -0.000009 2.457950 2.841630 -40.901300 -22.291500 -0.000108 -0.000004 23.357300 5.325840 -0.664619 -2.192480 -6.469440 -0.000000 -177.681000 -16.306400 3.998840 39.081100 -0.000007 -0.000012 -0.043617 0.070098 31.891300 40.985400 -0.000006 -0.000013 4.009180 1.622890 -72.098200 11.754300 -0.000000 0.000003 -0.000114 -0.001149 -16.621500 -2.192510 6.469440 -0.000001 169.749000 15.542600 -176.506000 -39.081100 -0.002282 -0.040193 -0.226069 0.380429 31.087000 -40.985400 0.000008 0.000006 -0.495147 15.057800 -69.109200 -11.754300 -0.000006 -0.000006 -0.003218 -0.043046 -18.323800
0.000000 0.000000 0.000000 0.000000 0.000000 -0.000000 5.409460 90.381800 -0.109092 89.507600 -7.594990 14.426900 15.735700 0.000005 -0.000001 91.528000 83.366700 -92.571700 8.984550 -0.406207 -0.000000 5.500200 0.373561 -2.103020 16.377300 -0.000001 -0.000001 31.983300 -4.034530 1.967690 6.456720 -0.000001 -0.000000 16.416800 -5.961070 -1.852850 12.994200 -0.242716 4.980390 -86.749100 -7.271460 -65.831000 5.348090 -0.000007 -0.000001 -41.124200 -45.171700 -65.511700 24.328600 0.000019 0.000005 13.140900 14.837900 -42.353900 22.291600 -0.000001 0.000005 17.426400 5.066850 5.863330 12.994500 -0.242716 -4.980390 91.465300 -5.150210 -74.094900 -5.348130 -0.000001 -0.000004 -41.072300 -45.372000 -64.007600 -24.328900 0.000322 -0.000009 2.349030 2.532780 -42.883800 -22.291500 -0.000108 -0.000004 23.539200 5.338940 -1.047920 -2.192480 -6.469440 -0.000000 -177.591000 -16.353700 4.251820 39.081100 -0.000007 -0.000012 -0.047190 0.075615 31.967900 40.985400 -0.000006 -0.000013 4.007990 1.581450 -72.198900 11.754300 -0.000000 0.000003 -0.000125 -0.001248 -16.625200 -2.192510 6.469440 -0.000001 169.665000 15.490500 -176.288000 -39.081100 -0.002282 -0.040193 -0.227269 0.381400 31.154600 -40.985400 0.000008 0.000006 -0.487142 15.173200 -69.173000 -11.754300 -0.000006 -0.000006 -0.003239 -0.043279 -18.333300
0.000000 0.000000 0.000000 0.000000 0.000000 -0.000000 5.432160 90.365600 -0.062179 89.496800 -7.670070 14.621400 15.735700 0.000005 -0.000001 91.340900 83.425100 -92.362700 8.984550 -0.406207 -0.000000 5.383910 0.328251 -2.056570 16.377300 -0.000001 -0.000001 31.550400 -4.147430 2.076850 6.456720 -0.000001 -0.000000 16.439200 -6.043550 -2.009980 12.994200 -0.242716 4.980390 -86.682200 -7.506780 -66.071400 5.348090 -0.000007 -0.000001 -40.368700 -43.173000 -68.685600 24.328600 0.000019 0.000005 13.884400 14.419600 -44.788000 22.291600 -0.000001 0.000005 17.368600 5.080640 5.553820 12.994500 -0.242716 -4.980390 91.509100 -5.344200 -74.205900 -5.348130 -0.000001 -0.000004 -40.607300 -43.141200 -67.284600 -24.328900 0.000322 -0.000009 2.290050 2.305720 -44.842100 -22.291500 -0.000108 -0.000004 23.624400 5.356320 -1.567820 -2.192480 -6.469440 -0.000000 -177.531000 -16.372500 4.485460 39.081100 -0.000007 -0.000012 -0.047565 0.076105 32.005400 40.985400 -0.000006 -0.000013 3.999210 1.508840 -72.266500 11.754300 -0.000000 0.000003 -0.000121 -0.001208 -16.623700 -2.192510 6.469440 -0.000001 169.577000 15.490900 -176.077000 -39.081100 -0.002282 -0.040193 -0.225555 0.377954 31.195600 -40.985400 0.000008 0.000006 -0.473741 15.280600 -69.218900 -11.754300 -0.000006 -0.000006 -0.003363 -0.044640 -18.388700
